{
	"asset":{
		"generator":"Khronos glTF Blender I/O v4.2.70",
		"version":"2.0"
	},
	"scene":0,
	"scenes":[
		{
			"name":"Scene",
			"nodes":[
				4
			]
		}
	],
	"nodes":[
		{
			"name":"Bone.002",
			"scale":[
				1,
				0.9999999403953552,
				1
			],
			"translation":[
				0,
				1.3879092931747437,
				0
			]
		},
		{
			"children":[
				0
			],
			"name":"Bone.001",
			"scale":[
				1,
				0.9999999403953552,
				1
			],
			"translation":[
				0,
				1,
				0
			]
		},
		{
			"children":[
				1
			],
			"name":"Bone",
			"scale":[
				1,
				0.9999999403953552,
				1
			],
			"translation":[
				0,
				1.1920928955078125e-07,
				0
			]
		},
		{
			"mesh":0,
			"name":"Cylinder",
			"skin":0
		},
		{
			"children":[
				3,
				2
			],
			"name":"Armature",
			"scale":[
				1,
				3.473586320877075,
				1
			],
			"translation":[
				0,
				-5.995673179626465,
				0
			]
		}
	],
	"animations":[
		{
			"channels":[
				{
					"sampler":0,
					"target":{
						"node":2,
						"path":"translation"
					}
				},
				{
					"sampler":1,
					"target":{
						"node":2,
						"path":"rotation"
					}
				},
				{
					"sampler":2,
					"target":{
						"node":2,
						"path":"scale"
					}
				},
				{
					"sampler":3,
					"target":{
						"node":1,
						"path":"translation"
					}
				},
				{
					"sampler":4,
					"target":{
						"node":1,
						"path":"rotation"
					}
				},
				{
					"sampler":5,
					"target":{
						"node":1,
						"path":"scale"
					}
				},
				{
					"sampler":6,
					"target":{
						"node":0,
						"path":"translation"
					}
				},
				{
					"sampler":7,
					"target":{
						"node":0,
						"path":"rotation"
					}
				},
				{
					"sampler":8,
					"target":{
						"node":0,
						"path":"scale"
					}
				}
			],
			"name":"ArmatureAction",
			"samplers":[
				{
					"input":7,
					"interpolation":"STEP",
					"output":8
				},
				{
					"input":7,
					"interpolation":"STEP",
					"output":9
				},
				{
					"input":7,
					"interpolation":"STEP",
					"output":10
				},
				{
					"input":7,
					"interpolation":"STEP",
					"output":11
				},
				{
					"input":12,
					"interpolation":"LINEAR",
					"output":13
				},
				{
					"input":7,
					"interpolation":"STEP",
					"output":14
				},
				{
					"input":7,
					"interpolation":"LINEAR",
					"output":15
				},
				{
					"input":12,
					"interpolation":"LINEAR",
					"output":16
				},
				{
					"input":7,
					"interpolation":"LINEAR",
					"output":17
				}
			]
		}
	],
	"materials":[
		{
			"doubleSided":true,
			"name":"Material.001",
			"pbrMetallicRoughness":{
				"baseColorTexture":{
					"index":0
				},
				"metallicFactor":0,
				"roughnessFactor":0.5
			}
		}
	],
	"meshes":[
		{
			"name":"Cylinder",
			"primitives":[
				{
					"attributes":{
						"POSITION":0,
						"NORMAL":1,
						"TEXCOORD_0":2,
						"JOINTS_0":3,
						"WEIGHTS_0":4
					},
					"indices":5,
					"material":0
				}
			]
		}
	],
	"textures":[
		{
			"sampler":0,
			"source":0
		}
	],
	"images":[
		{
			"mimeType":"image/png",
			"name":"AnimatedTesting_baseColor",
			"uri":"AnimatedTesting_baseColor.png"
		}
	],
	"skins":[
		{
			"inverseBindMatrices":6,
			"joints":[
				2,
				1,
				0
			],
			"name":"Armature"
		}
	],
	"accessors":[
		{
			"bufferView":0,
			"componentType":5126,
			"count":1600,
			"max":[
				0.9999999403953552,
				5.656871318817139,
				0.9999999403953552
			],
			"min":[
				-0.9999999403953552,
				-5.656871318817139,
				-0.9999999403953552
			],
			"type":"VEC3"
		},
		{
			"bufferView":1,
			"componentType":5126,
			"count":1600,
			"type":"VEC3"
		},
		{
			"bufferView":2,
			"componentType":5126,
			"count":1600,
			"type":"VEC2"
		},
		{
			"bufferView":3,
			"componentType":5121,
			"count":1600,
			"type":"VEC4"
		},
		{
			"bufferView":4,
			"componentType":5126,
			"count":1600,
			"type":"VEC4"
		},
		{
			"bufferView":5,
			"componentType":5123,
			"count":4596,
			"type":"SCALAR"
		},
		{
			"bufferView":6,
			"componentType":5126,
			"count":3,
			"type":"MAT4"
		},
		{
			"bufferView":7,
			"componentType":5126,
			"count":2,
			"max":[
				3.3333333333333335
			],
			"min":[
				0.041666666666666664
			],
			"type":"SCALAR"
		},
		{
			"bufferView":8,
			"componentType":5126,
			"count":2,
			"type":"VEC3"
		},
		{
			"bufferView":9,
			"componentType":5126,
			"count":2,
			"type":"VEC4"
		},
		{
			"bufferView":10,
			"componentType":5126,
			"count":2,
			"type":"VEC3"
		},
		{
			"bufferView":11,
			"componentType":5126,
			"count":2,
			"type":"VEC3"
		},
		{
			"bufferView":12,
			"componentType":5126,
			"count":80,
			"max":[
				3.3333333333333335
			],
			"min":[
				0.041666666666666664
			],
			"type":"SCALAR"
		},
		{
			"bufferView":13,
			"componentType":5126,
			"count":80,
			"type":"VEC4"
		},
		{
			"bufferView":14,
			"componentType":5126,
			"count":2,
			"type":"VEC3"
		},
		{
			"bufferView":15,
			"componentType":5126,
			"count":2,
			"type":"VEC3"
		},
		{
			"bufferView":16,
			"componentType":5126,
			"count":80,
			"type":"VEC4"
		},
		{
			"bufferView":17,
			"componentType":5126,
			"count":2,
			"type":"VEC3"
		}
	],
	"bufferViews":[
		{
			"buffer":0,
			"byteLength":19200,
			"byteOffset":0,
			"target":34962
		},
		{
			"buffer":0,
			"byteLength":19200,
			"byteOffset":19200,
			"target":34962
		},
		{
			"buffer":0,
			"byteLength":12800,
			"byteOffset":38400,
			"target":34962
		},
		{
			"buffer":0,
			"byteLength":6400,
			"byteOffset":51200,
			"target":34962
		},
		{
			"buffer":0,
			"byteLength":25600,
			"byteOffset":57600,
			"target":34962
		},
		{
			"buffer":0,
			"byteLength":9192,
			"byteOffset":83200,
			"target":34963
		},
		{
			"buffer":0,
			"byteLength":192,
			"byteOffset":92392
		},
		{
			"buffer":0,
			"byteLength":8,
			"byteOffset":92584
		},
		{
			"buffer":0,
			"byteLength":24,
			"byteOffset":92592
		},
		{
			"buffer":0,
			"byteLength":32,
			"byteOffset":92616
		},
		{
			"buffer":0,
			"byteLength":24,
			"byteOffset":92648
		},
		{
			"buffer":0,
			"byteLength":24,
			"byteOffset":92672
		},
		{
			"buffer":0,
			"byteLength":320,
			"byteOffset":92696
		},
		{
			"buffer":0,
			"byteLength":1280,
			"byteOffset":93016
		},
		{
			"buffer":0,
			"byteLength":24,
			"byteOffset":94296
		},
		{
			"buffer":0,
			"byteLength":24,
			"byteOffset":94320
		},
		{
			"buffer":0,
			"byteLength":1280,
			"byteOffset":94344
		},
		{
			"buffer":0,
			"byteLength":24,
			"byteOffset":95624
		}
	],
	"samplers":[
		{
			"magFilter":9729,
			"minFilter":9987
		}
	],
	"buffers":[
		{
			"byteLength":95648,
			"uri":"AnimatedTesting.bin"
		}
	]
}
