{
	"asset":{
		"generator":"Khronos glTF Blender I/O v4.2.70",
		"version":"2.0"
	},
	"scene":0,
	"scenes":[
		{
			"name":"Scene",
			"nodes":[
				12
			]
		}
	],
	"nodes":[
		{
			"name":"Bone.004",
			"rotation":[
				-4.2694457478336593e-16,
				1.4492158584289427e-09,
				1.409953043207679e-09,
				1
			],
			"translation":[
				1.73081069476666e-08,
				1.0751417875289917,
				5.755341119455899e-15
			]
		},
		{
			"children":[
				0
			],
			"name":"Bone.003",
			"rotation":[
				-1.628675798013516e-15,
				5.407351011399442e-09,
				4.9762953757692685e-09,
				1
			],
			"translation":[
				-1.930891357915243e-08,
				0.8671512603759766,
				-6.202012509245666e-15
			]
		},
		{
			"children":[
				1
			],
			"name":"Bone.002",
			"rotation":[
				-1.97506722088292e-07,
				2.7764777144057007e-08,
				0.7071066498756409,
				0.70710688829422
			],
			"translation":[
				2.3836012985611887e-07,
				0.7554779648780823,
				-1.4030465496557044e-17
			]
		},
		{
			"children":[
				2
			],
			"name":"Bone.001",
			"rotation":[
				8.475081614278679e-08,
				8.499100090375578e-08,
				-0.7061055898666382,
				0.7081065773963928
			],
			"scale":[
				0.9999998807907104,
				0.9999998807907104,
				1
			],
			"translation":[
				4.284083843231201e-08,
				1,
				0
			]
		},
		{
			"name":"Bone.009",
			"rotation":[
				4.861228492806428e-16,
				3.1431852676178096e-09,
				3.317534913449549e-09,
				1
			],
			"translation":[
				-3.341855014937778e-09,
				1.0520366430282593,
				3.772329522628399e-16
			]
		},
		{
			"children":[
				4
			],
			"name":"Bone.008",
			"rotation":[
				-4.3420010019086866e-16,
				-2.677513322169034e-09,
				-2.819905864370753e-09,
				1
			],
			"translation":[
				-1.916870928653225e-08,
				0.8855766654014587,
				2.745947619067486e-15
			]
		},
		{
			"children":[
				5
			],
			"name":"Bone.007",
			"rotation":[
				-1.1172775771228771e-07,
				1.0433618413685508e-08,
				-0.7071067690849304,
				0.7071067690849304
			],
			"translation":[
				-2.054842980214744e-07,
				0.7105008959770203,
				-5.689802368678571e-15
			]
		},
		{
			"children":[
				6
			],
			"name":"Bone.005",
			"rotation":[
				6.116706430248087e-08,
				-6.099421057115251e-08,
				0.7081065773963928,
				0.7061055898666382
			],
			"scale":[
				0.9999998807907104,
				0.9999998807907104,
				1
			],
			"translation":[
				4.284083843231201e-08,
				1,
				0
			]
		},
		{
			"children":[
				3,
				7
			],
			"name":"Bone",
			"rotation":[
				0,
				0,
				1.1641532182693481e-10,
				1
			],
			"translation":[
				5.587935447692871e-08,
				-1.2223608791828156e-07,
				0
			]
		},
		{
			"mesh":0,
			"name":"Cube",
			"skin":0
		},
		{
			"mesh":1,
			"name":"Cylinder",
			"skin":0
		},
		{
			"mesh":2,
			"name":"Cylinder.001",
			"skin":0
		},
		{
			"children":[
				9,
				10,
				11,
				8
			],
			"name":"Armature",
			"rotation":[
				0,
				0,
				0.9999989867210388,
				0.0014149383641779423
			],
			"scale":[
				5.614551544189453,
				5.614551544189453,
				5.614551544189453
			],
			"translation":[
				4.223448753356934,
				23.563003540039062,
				0
			]
		}
	],
	"animations":[
		{
			"channels":[
				{
					"sampler":0,
					"target":{
						"node":8,
						"path":"translation"
					}
				},
				{
					"sampler":1,
					"target":{
						"node":8,
						"path":"rotation"
					}
				},
				{
					"sampler":2,
					"target":{
						"node":8,
						"path":"scale"
					}
				},
				{
					"sampler":3,
					"target":{
						"node":3,
						"path":"translation"
					}
				},
				{
					"sampler":4,
					"target":{
						"node":3,
						"path":"rotation"
					}
				},
				{
					"sampler":5,
					"target":{
						"node":3,
						"path":"scale"
					}
				},
				{
					"sampler":6,
					"target":{
						"node":2,
						"path":"translation"
					}
				},
				{
					"sampler":7,
					"target":{
						"node":2,
						"path":"rotation"
					}
				},
				{
					"sampler":8,
					"target":{
						"node":2,
						"path":"scale"
					}
				},
				{
					"sampler":9,
					"target":{
						"node":1,
						"path":"translation"
					}
				},
				{
					"sampler":10,
					"target":{
						"node":1,
						"path":"rotation"
					}
				},
				{
					"sampler":11,
					"target":{
						"node":1,
						"path":"scale"
					}
				},
				{
					"sampler":12,
					"target":{
						"node":0,
						"path":"translation"
					}
				},
				{
					"sampler":13,
					"target":{
						"node":0,
						"path":"rotation"
					}
				},
				{
					"sampler":14,
					"target":{
						"node":0,
						"path":"scale"
					}
				},
				{
					"sampler":15,
					"target":{
						"node":7,
						"path":"translation"
					}
				},
				{
					"sampler":16,
					"target":{
						"node":7,
						"path":"rotation"
					}
				},
				{
					"sampler":17,
					"target":{
						"node":7,
						"path":"scale"
					}
				},
				{
					"sampler":18,
					"target":{
						"node":6,
						"path":"translation"
					}
				},
				{
					"sampler":19,
					"target":{
						"node":6,
						"path":"rotation"
					}
				},
				{
					"sampler":20,
					"target":{
						"node":6,
						"path":"scale"
					}
				},
				{
					"sampler":21,
					"target":{
						"node":5,
						"path":"translation"
					}
				},
				{
					"sampler":22,
					"target":{
						"node":5,
						"path":"rotation"
					}
				},
				{
					"sampler":23,
					"target":{
						"node":5,
						"path":"scale"
					}
				},
				{
					"sampler":24,
					"target":{
						"node":4,
						"path":"translation"
					}
				},
				{
					"sampler":25,
					"target":{
						"node":4,
						"path":"rotation"
					}
				},
				{
					"sampler":26,
					"target":{
						"node":4,
						"path":"scale"
					}
				}
			],
			"name":"ArmatureAction",
			"samplers":[
				{
					"input":19,
					"interpolation":"STEP",
					"output":20
				},
				{
					"input":19,
					"interpolation":"STEP",
					"output":21
				},
				{
					"input":19,
					"interpolation":"STEP",
					"output":22
				},
				{
					"input":19,
					"interpolation":"STEP",
					"output":23
				},
				{
					"input":24,
					"interpolation":"LINEAR",
					"output":25
				},
				{
					"input":19,
					"interpolation":"STEP",
					"output":26
				},
				{
					"input":19,
					"interpolation":"LINEAR",
					"output":27
				},
				{
					"input":19,
					"interpolation":"LINEAR",
					"output":28
				},
				{
					"input":19,
					"interpolation":"STEP",
					"output":29
				},
				{
					"input":19,
					"interpolation":"LINEAR",
					"output":30
				},
				{
					"input":19,
					"interpolation":"LINEAR",
					"output":31
				},
				{
					"input":19,
					"interpolation":"STEP",
					"output":32
				},
				{
					"input":19,
					"interpolation":"LINEAR",
					"output":33
				},
				{
					"input":19,
					"interpolation":"LINEAR",
					"output":34
				},
				{
					"input":19,
					"interpolation":"STEP",
					"output":35
				},
				{
					"input":19,
					"interpolation":"STEP",
					"output":36
				},
				{
					"input":24,
					"interpolation":"LINEAR",
					"output":37
				},
				{
					"input":19,
					"interpolation":"STEP",
					"output":38
				},
				{
					"input":19,
					"interpolation":"LINEAR",
					"output":39
				},
				{
					"input":19,
					"interpolation":"LINEAR",
					"output":40
				},
				{
					"input":19,
					"interpolation":"STEP",
					"output":41
				},
				{
					"input":19,
					"interpolation":"LINEAR",
					"output":42
				},
				{
					"input":19,
					"interpolation":"LINEAR",
					"output":43
				},
				{
					"input":19,
					"interpolation":"STEP",
					"output":44
				},
				{
					"input":19,
					"interpolation":"LINEAR",
					"output":45
				},
				{
					"input":19,
					"interpolation":"LINEAR",
					"output":46
				},
				{
					"input":19,
					"interpolation":"STEP",
					"output":47
				}
			]
		}
	],
	"materials":[
		{
			"doubleSided":true,
			"name":"Material",
			"pbrMetallicRoughness":{
				"baseColorTexture":{
					"index":0
				},
				"metallicFactor":0,
				"roughnessFactor":0.5
			}
		},
		{
			"doubleSided":true,
			"name":"Material.001",
			"pbrMetallicRoughness":{
				"baseColorTexture":{
					"index":1
				},
				"metallicFactor":0,
				"roughnessFactor":0.5
			}
		},
		{
			"doubleSided":true,
			"name":"Material.002",
			"pbrMetallicRoughness":{
				"baseColorTexture":{
					"index":2
				},
				"metallicFactor":0,
				"roughnessFactor":0.5
			}
		}
	],
	"meshes":[
		{
			"name":"Cube",
			"primitives":[
				{
					"attributes":{
						"POSITION":0,
						"NORMAL":1,
						"TEXCOORD_0":2,
						"JOINTS_0":3,
						"WEIGHTS_0":4
					},
					"indices":5,
					"material":0
				}
			]
		},
		{
			"name":"Cylinder",
			"primitives":[
				{
					"attributes":{
						"POSITION":7,
						"NORMAL":8,
						"TEXCOORD_0":9,
						"JOINTS_0":10,
						"WEIGHTS_0":11
					},
					"indices":12,
					"material":1
				}
			]
		},
		{
			"name":"Cylinder.001",
			"primitives":[
				{
					"attributes":{
						"POSITION":13,
						"NORMAL":14,
						"TEXCOORD_0":15,
						"JOINTS_0":16,
						"WEIGHTS_0":17
					},
					"indices":18,
					"material":2
				}
			]
		}
	],
	"textures":[
		{
			"sampler":0,
			"source":0
		},
		{
			"sampler":0,
			"source":0
		},
		{
			"sampler":0,
			"source":0
		}
	],
	"images":[
		{
			"mimeType":"image/png",
			"name":"AnimatedTesting3_baseColor",
			"uri":"AnimatedTesting3_baseColor.png"
		}
	],
	"skins":[
		{
			"inverseBindMatrices":6,
			"joints":[
				8,
				3,
				2,
				1,
				0,
				7,
				6,
				5,
				4
			],
			"name":"Armature"
		}
	],
	"accessors":[
		{
			"bufferView":0,
			"componentType":5126,
			"count":24,
			"max":[
				9.589942932128906,
				18.810787200927734,
				8.998841285705566
			],
			"min":[
				-9.589944839477539,
				16.810787200927734,
				-8.998841285705566
			],
			"type":"VEC3"
		},
		{
			"bufferView":1,
			"componentType":5126,
			"count":24,
			"type":"VEC3"
		},
		{
			"bufferView":2,
			"componentType":5126,
			"count":24,
			"type":"VEC2"
		},
		{
			"bufferView":3,
			"componentType":5121,
			"count":24,
			"type":"VEC4"
		},
		{
			"bufferView":4,
			"componentType":5126,
			"count":24,
			"type":"VEC4"
		},
		{
			"bufferView":5,
			"componentType":5123,
			"count":36,
			"type":"SCALAR"
		},
		{
			"bufferView":6,
			"componentType":5126,
			"count":9,
			"type":"MAT4"
		},
		{
			"bufferView":7,
			"componentType":5126,
			"count":2240,
			"max":[
				0.9999995231628418,
				17.08139419555664,
				0.9999999403953552
			],
			"min":[
				-1.0000004768371582,
				-0.3701820373535156,
				-0.9999999403953552
			],
			"type":"VEC3"
		},
		{
			"bufferView":8,
			"componentType":5126,
			"count":2240,
			"type":"VEC3"
		},
		{
			"bufferView":9,
			"componentType":5126,
			"count":2240,
			"type":"VEC2"
		},
		{
			"bufferView":10,
			"componentType":5121,
			"count":2240,
			"type":"VEC4"
		},
		{
			"bufferView":11,
			"componentType":5126,
			"count":2240,
			"type":"VEC4"
		},
		{
			"bufferView":12,
			"componentType":5123,
			"count":6516,
			"type":"SCALAR"
		},
		{
			"bufferView":13,
			"componentType":5126,
			"count":1920,
			"max":[
				9.243221282958984,
				17.08139419555664,
				0.9999999403953552
			],
			"min":[
				7.243221282958984,
				-0.3701820373535156,
				-0.9999999403953552
			],
			"type":"VEC3"
		},
		{
			"bufferView":14,
			"componentType":5126,
			"count":1920,
			"type":"VEC3"
		},
		{
			"bufferView":15,
			"componentType":5126,
			"count":1920,
			"type":"VEC2"
		},
		{
			"bufferView":16,
			"componentType":5121,
			"count":1920,
			"type":"VEC4"
		},
		{
			"bufferView":17,
			"componentType":5126,
			"count":1920,
			"type":"VEC4"
		},
		{
			"bufferView":18,
			"componentType":5123,
			"count":5556,
			"type":"SCALAR"
		},
		{
			"bufferView":19,
			"componentType":5126,
			"count":2,
			"max":[
				3.375
			],
			"min":[
				0.041666666666666664
			],
			"type":"SCALAR"
		},
		{
			"bufferView":20,
			"componentType":5126,
			"count":2,
			"type":"VEC3"
		},
		{
			"bufferView":21,
			"componentType":5126,
			"count":2,
			"type":"VEC4"
		},
		{
			"bufferView":22,
			"componentType":5126,
			"count":2,
			"type":"VEC3"
		},
		{
			"bufferView":23,
			"componentType":5126,
			"count":2,
			"type":"VEC3"
		},
		{
			"bufferView":24,
			"componentType":5126,
			"count":81,
			"max":[
				3.375
			],
			"min":[
				0.041666666666666664
			],
			"type":"SCALAR"
		},
		{
			"bufferView":25,
			"componentType":5126,
			"count":81,
			"type":"VEC4"
		},
		{
			"bufferView":26,
			"componentType":5126,
			"count":2,
			"type":"VEC3"
		},
		{
			"bufferView":27,
			"componentType":5126,
			"count":2,
			"type":"VEC3"
		},
		{
			"bufferView":28,
			"componentType":5126,
			"count":2,
			"type":"VEC4"
		},
		{
			"bufferView":29,
			"componentType":5126,
			"count":2,
			"type":"VEC3"
		},
		{
			"bufferView":30,
			"componentType":5126,
			"count":2,
			"type":"VEC3"
		},
		{
			"bufferView":31,
			"componentType":5126,
			"count":2,
			"type":"VEC4"
		},
		{
			"bufferView":32,
			"componentType":5126,
			"count":2,
			"type":"VEC3"
		},
		{
			"bufferView":33,
			"componentType":5126,
			"count":2,
			"type":"VEC3"
		},
		{
			"bufferView":34,
			"componentType":5126,
			"count":2,
			"type":"VEC4"
		},
		{
			"bufferView":35,
			"componentType":5126,
			"count":2,
			"type":"VEC3"
		},
		{
			"bufferView":36,
			"componentType":5126,
			"count":2,
			"type":"VEC3"
		},
		{
			"bufferView":37,
			"componentType":5126,
			"count":81,
			"type":"VEC4"
		},
		{
			"bufferView":38,
			"componentType":5126,
			"count":2,
			"type":"VEC3"
		},
		{
			"bufferView":39,
			"componentType":5126,
			"count":2,
			"type":"VEC3"
		},
		{
			"bufferView":40,
			"componentType":5126,
			"count":2,
			"type":"VEC4"
		},
		{
			"bufferView":41,
			"componentType":5126,
			"count":2,
			"type":"VEC3"
		},
		{
			"bufferView":42,
			"componentType":5126,
			"count":2,
			"type":"VEC3"
		},
		{
			"bufferView":43,
			"componentType":5126,
			"count":2,
			"type":"VEC4"
		},
		{
			"bufferView":44,
			"componentType":5126,
			"count":2,
			"type":"VEC3"
		},
		{
			"bufferView":45,
			"componentType":5126,
			"count":2,
			"type":"VEC3"
		},
		{
			"bufferView":46,
			"componentType":5126,
			"count":2,
			"type":"VEC4"
		},
		{
			"bufferView":47,
			"componentType":5126,
			"count":2,
			"type":"VEC3"
		}
	],
	"bufferViews":[
		{
			"buffer":0,
			"byteLength":288,
			"byteOffset":0,
			"target":34962
		},
		{
			"buffer":0,
			"byteLength":288,
			"byteOffset":288,
			"target":34962
		},
		{
			"buffer":0,
			"byteLength":192,
			"byteOffset":576,
			"target":34962
		},
		{
			"buffer":0,
			"byteLength":96,
			"byteOffset":768,
			"target":34962
		},
		{
			"buffer":0,
			"byteLength":384,
			"byteOffset":864,
			"target":34962
		},
		{
			"buffer":0,
			"byteLength":72,
			"byteOffset":1248,
			"target":34963
		},
		{
			"buffer":0,
			"byteLength":576,
			"byteOffset":1320
		},
		{
			"buffer":0,
			"byteLength":26880,
			"byteOffset":1896,
			"target":34962
		},
		{
			"buffer":0,
			"byteLength":26880,
			"byteOffset":28776,
			"target":34962
		},
		{
			"buffer":0,
			"byteLength":17920,
			"byteOffset":55656,
			"target":34962
		},
		{
			"buffer":0,
			"byteLength":8960,
			"byteOffset":73576,
			"target":34962
		},
		{
			"buffer":0,
			"byteLength":35840,
			"byteOffset":82536,
			"target":34962
		},
		{
			"buffer":0,
			"byteLength":13032,
			"byteOffset":118376,
			"target":34963
		},
		{
			"buffer":0,
			"byteLength":23040,
			"byteOffset":131408,
			"target":34962
		},
		{
			"buffer":0,
			"byteLength":23040,
			"byteOffset":154448,
			"target":34962
		},
		{
			"buffer":0,
			"byteLength":15360,
			"byteOffset":177488,
			"target":34962
		},
		{
			"buffer":0,
			"byteLength":7680,
			"byteOffset":192848,
			"target":34962
		},
		{
			"buffer":0,
			"byteLength":30720,
			"byteOffset":200528,
			"target":34962
		},
		{
			"buffer":0,
			"byteLength":11112,
			"byteOffset":231248,
			"target":34963
		},
		{
			"buffer":0,
			"byteLength":8,
			"byteOffset":242360
		},
		{
			"buffer":0,
			"byteLength":24,
			"byteOffset":242368
		},
		{
			"buffer":0,
			"byteLength":32,
			"byteOffset":242392
		},
		{
			"buffer":0,
			"byteLength":24,
			"byteOffset":242424
		},
		{
			"buffer":0,
			"byteLength":24,
			"byteOffset":242448
		},
		{
			"buffer":0,
			"byteLength":324,
			"byteOffset":242472
		},
		{
			"buffer":0,
			"byteLength":1296,
			"byteOffset":242796
		},
		{
			"buffer":0,
			"byteLength":24,
			"byteOffset":244092
		},
		{
			"buffer":0,
			"byteLength":24,
			"byteOffset":244116
		},
		{
			"buffer":0,
			"byteLength":32,
			"byteOffset":244140
		},
		{
			"buffer":0,
			"byteLength":24,
			"byteOffset":244172
		},
		{
			"buffer":0,
			"byteLength":24,
			"byteOffset":244196
		},
		{
			"buffer":0,
			"byteLength":32,
			"byteOffset":244220
		},
		{
			"buffer":0,
			"byteLength":24,
			"byteOffset":244252
		},
		{
			"buffer":0,
			"byteLength":24,
			"byteOffset":244276
		},
		{
			"buffer":0,
			"byteLength":32,
			"byteOffset":244300
		},
		{
			"buffer":0,
			"byteLength":24,
			"byteOffset":244332
		},
		{
			"buffer":0,
			"byteLength":24,
			"byteOffset":244356
		},
		{
			"buffer":0,
			"byteLength":1296,
			"byteOffset":244380
		},
		{
			"buffer":0,
			"byteLength":24,
			"byteOffset":245676
		},
		{
			"buffer":0,
			"byteLength":24,
			"byteOffset":245700
		},
		{
			"buffer":0,
			"byteLength":32,
			"byteOffset":245724
		},
		{
			"buffer":0,
			"byteLength":24,
			"byteOffset":245756
		},
		{
			"buffer":0,
			"byteLength":24,
			"byteOffset":245780
		},
		{
			"buffer":0,
			"byteLength":32,
			"byteOffset":245804
		},
		{
			"buffer":0,
			"byteLength":24,
			"byteOffset":245836
		},
		{
			"buffer":0,
			"byteLength":24,
			"byteOffset":245860
		},
		{
			"buffer":0,
			"byteLength":32,
			"byteOffset":245884
		},
		{
			"buffer":0,
			"byteLength":24,
			"byteOffset":245916
		}
	],
	"samplers":[
		{
			"magFilter":9729,
			"minFilter":9987
		}
	],
	"buffers":[
		{
			"byteLength":245940,
			"uri":"AnimatedTesting3.bin"
		}
	]
}
