{
	"asset":{
		"generator":"Khronos glTF Blender I/O v4.2.70",
		"version":"2.0"
	},
	"scene":0,
	"scenes":[
		{
			"name":"Scene",
			"nodes":[
				7
			]
		}
	],
	"nodes":[
		{
			"name":"Bone.004",
			"scale":[
				0.9999999403953552,
				0.9999999403953552,
				0.9999999403953552
			],
			"translation":[
				0,
				1.3902194499969482,
				0
			]
		},
		{
			"children":[
				0
			],
			"name":"Bone.003",
			"scale":[
				0.9999999403953552,
				0.9999999403953552,
				0.9999999403953552
			],
			"translation":[
				0,
				1.1806358098983765,
				0
			]
		},
		{
			"children":[
				1
			],
			"name":"Bone.002",
			"scale":[
				0.9999999403953552,
				0.9999999403953552,
				0.9999999403953552
			],
			"translation":[
				0,
				1.3544410467147827,
				0
			]
		},
		{
			"children":[
				2
			],
			"name":"Bone.001",
			"scale":[
				0.9999999403953552,
				0.9999999403953552,
				0.9999999403953552
			],
			"translation":[
				0,
				1,
				0
			]
		},
		{
			"children":[
				3
			],
			"name":"Bone",
			"scale":[
				0.9999999403953552,
				0.9999999403953552,
				0.9999999403953552
			]
		},
		{
			"mesh":0,
			"name":"Cube",
			"skin":0
		},
		{
			"mesh":1,
			"name":"Sphere",
			"skin":0
		},
		{
			"children":[
				5,
				6,
				4
			],
			"name":"Armature",
			"scale":[
				2.0103390216827393,
				2.0103390216827393,
				2.0103390216827393
			],
			"translation":[
				0,
				-4.960129261016846,
				0
			]
		}
	],
	"animations":[
		{
			"channels":[
				{
					"sampler":0,
					"target":{
						"node":4,
						"path":"translation"
					}
				},
				{
					"sampler":1,
					"target":{
						"node":4,
						"path":"rotation"
					}
				},
				{
					"sampler":2,
					"target":{
						"node":4,
						"path":"scale"
					}
				},
				{
					"sampler":3,
					"target":{
						"node":3,
						"path":"translation"
					}
				},
				{
					"sampler":4,
					"target":{
						"node":3,
						"path":"rotation"
					}
				},
				{
					"sampler":5,
					"target":{
						"node":3,
						"path":"scale"
					}
				},
				{
					"sampler":6,
					"target":{
						"node":2,
						"path":"translation"
					}
				},
				{
					"sampler":7,
					"target":{
						"node":2,
						"path":"rotation"
					}
				},
				{
					"sampler":8,
					"target":{
						"node":2,
						"path":"scale"
					}
				},
				{
					"sampler":9,
					"target":{
						"node":1,
						"path":"translation"
					}
				},
				{
					"sampler":10,
					"target":{
						"node":1,
						"path":"rotation"
					}
				},
				{
					"sampler":11,
					"target":{
						"node":1,
						"path":"scale"
					}
				},
				{
					"sampler":12,
					"target":{
						"node":0,
						"path":"translation"
					}
				},
				{
					"sampler":13,
					"target":{
						"node":0,
						"path":"rotation"
					}
				},
				{
					"sampler":14,
					"target":{
						"node":0,
						"path":"scale"
					}
				}
			],
			"name":"ArmatureAction",
			"samplers":[
				{
					"input":13,
					"interpolation":"STEP",
					"output":14
				},
				{
					"input":13,
					"interpolation":"STEP",
					"output":15
				},
				{
					"input":13,
					"interpolation":"STEP",
					"output":16
				},
				{
					"input":13,
					"interpolation":"STEP",
					"output":17
				},
				{
					"input":13,
					"interpolation":"STEP",
					"output":18
				},
				{
					"input":13,
					"interpolation":"STEP",
					"output":19
				},
				{
					"input":13,
					"interpolation":"STEP",
					"output":20
				},
				{
					"input":21,
					"interpolation":"LINEAR",
					"output":22
				},
				{
					"input":13,
					"interpolation":"STEP",
					"output":23
				},
				{
					"input":13,
					"interpolation":"LINEAR",
					"output":24
				},
				{
					"input":13,
					"interpolation":"LINEAR",
					"output":25
				},
				{
					"input":21,
					"interpolation":"LINEAR",
					"output":26
				},
				{
					"input":13,
					"interpolation":"LINEAR",
					"output":27
				},
				{
					"input":13,
					"interpolation":"LINEAR",
					"output":28
				},
				{
					"input":13,
					"interpolation":"LINEAR",
					"output":29
				}
			]
		}
	],
	"materials":[
		{
			"doubleSided":true,
			"name":"Material",
			"pbrMetallicRoughness":{
				"baseColorTexture":{
					"index":0
				},
				"metallicFactor":0,
				"roughnessFactor":0.5
			}
		},
		{
			"doubleSided":true,
			"name":"Material.001",
			"pbrMetallicRoughness":{
				"baseColorTexture":{
					"index":1
				},
				"metallicFactor":0,
				"roughnessFactor":0.5
			}
		}
	],
	"meshes":[
		{
			"name":"Cube",
			"primitives":[
				{
					"attributes":{
						"POSITION":0,
						"NORMAL":1,
						"TEXCOORD_0":2,
						"JOINTS_0":3,
						"WEIGHTS_0":4
					},
					"indices":5,
					"material":0
				}
			]
		},
		{
			"name":"Sphere",
			"primitives":[
				{
					"attributes":{
						"POSITION":7,
						"NORMAL":8,
						"TEXCOORD_0":9,
						"JOINTS_0":10,
						"WEIGHTS_0":11
					},
					"indices":12,
					"material":1
				}
			]
		}
	],
	"textures":[
		{
			"sampler":0,
			"source":0
		},
		{
			"sampler":0,
			"source":0
		}
	],
	"images":[
		{
			"mimeType": "image/png",
			"name": "AnimatedTesting2_baseColor",
			"uri": "AnimatedTesting2_baseColor.png"
		}
	],
	"skins":[
		{
			"inverseBindMatrices":6,
			"joints":[
				4,
				3,
				2,
				1,
				0
			],
			"name":"Armature"
		}
	],
	"accessors":[
		{
			"bufferView":0,
			"componentType":5126,
			"count":176,
			"max":[
				1,
				4.342407703399658,
				1
			],
			"min":[
				-1,
				-4.342408657073975,
				-1
			],
			"type":"VEC3"
		},
		{
			"bufferView":1,
			"componentType":5126,
			"count":176,
			"type":"VEC3"
		},
		{
			"bufferView":2,
			"componentType":5126,
			"count":176,
			"type":"VEC2"
		},
		{
			"bufferView":3,
			"componentType":5121,
			"count":176,
			"type":"VEC4"
		},
		{
			"bufferView":4,
			"componentType":5126,
			"count":176,
			"type":"VEC4"
		},
		{
			"bufferView":5,
			"componentType":5123,
			"count":492,
			"type":"SCALAR"
		},
		{
			"bufferView":6,
			"componentType":5126,
			"count":5,
			"type":"MAT4"
		},
		{
			"bufferView":7,
			"componentType":5126,
			"count":1984,
			"max":[
				2.03757381439209,
				7.246892929077148,
				2.0375730991363525
			],
			"min":[
				-2.0375726222991943,
				3.171743631362915,
				-2.037574529647827
			],
			"type":"VEC3"
		},
		{
			"bufferView":8,
			"componentType":5126,
			"count":1984,
			"type":"VEC3"
		},
		{
			"bufferView":9,
			"componentType":5126,
			"count":1984,
			"type":"VEC2"
		},
		{
			"bufferView":10,
			"componentType":5121,
			"count":1984,
			"type":"VEC4"
		},
		{
			"bufferView":11,
			"componentType":5126,
			"count":1984,
			"type":"VEC4"
		},
		{
			"bufferView":12,
			"componentType":5123,
			"count":2880,
			"type":"SCALAR"
		},
		{
			"bufferView":13,
			"componentType":5126,
			"count":2,
			"max":[
				10
			],
			"min":[
				0.041666666666666664
			],
			"type":"SCALAR"
		},
		{
			"bufferView":14,
			"componentType":5126,
			"count":2,
			"type":"VEC3"
		},
		{
			"bufferView":15,
			"componentType":5126,
			"count":2,
			"type":"VEC4"
		},
		{
			"bufferView":16,
			"componentType":5126,
			"count":2,
			"type":"VEC3"
		},
		{
			"bufferView":17,
			"componentType":5126,
			"count":2,
			"type":"VEC3"
		},
		{
			"bufferView":18,
			"componentType":5126,
			"count":2,
			"type":"VEC4"
		},
		{
			"bufferView":19,
			"componentType":5126,
			"count":2,
			"type":"VEC3"
		},
		{
			"bufferView":20,
			"componentType":5126,
			"count":2,
			"type":"VEC3"
		},
		{
			"bufferView":21,
			"componentType":5126,
			"count":240,
			"max":[
				10
			],
			"min":[
				0.041666666666666664
			],
			"type":"SCALAR"
		},
		{
			"bufferView":22,
			"componentType":5126,
			"count":240,
			"type":"VEC4"
		},
		{
			"bufferView":23,
			"componentType":5126,
			"count":2,
			"type":"VEC3"
		},
		{
			"bufferView":24,
			"componentType":5126,
			"count":2,
			"type":"VEC3"
		},
		{
			"bufferView":25,
			"componentType":5126,
			"count":2,
			"type":"VEC4"
		},
		{
			"bufferView":26,
			"componentType":5126,
			"count":240,
			"type":"VEC3"
		},
		{
			"bufferView":27,
			"componentType":5126,
			"count":2,
			"type":"VEC3"
		},
		{
			"bufferView":28,
			"componentType":5126,
			"count":2,
			"type":"VEC4"
		},
		{
			"bufferView":29,
			"componentType":5126,
			"count":2,
			"type":"VEC3"
		}
	],
	"bufferViews":[
		{
			"buffer":0,
			"byteLength":2112,
			"byteOffset":0,
			"target":34962
		},
		{
			"buffer":0,
			"byteLength":2112,
			"byteOffset":2112,
			"target":34962
		},
		{
			"buffer":0,
			"byteLength":1408,
			"byteOffset":4224,
			"target":34962
		},
		{
			"buffer":0,
			"byteLength":704,
			"byteOffset":5632,
			"target":34962
		},
		{
			"buffer":0,
			"byteLength":2816,
			"byteOffset":6336,
			"target":34962
		},
		{
			"buffer":0,
			"byteLength":984,
			"byteOffset":9152,
			"target":34963
		},
		{
			"buffer":0,
			"byteLength":320,
			"byteOffset":10136
		},
		{
			"buffer":0,
			"byteLength":23808,
			"byteOffset":10456,
			"target":34962
		},
		{
			"buffer":0,
			"byteLength":23808,
			"byteOffset":34264,
			"target":34962
		},
		{
			"buffer":0,
			"byteLength":15872,
			"byteOffset":58072,
			"target":34962
		},
		{
			"buffer":0,
			"byteLength":7936,
			"byteOffset":73944,
			"target":34962
		},
		{
			"buffer":0,
			"byteLength":31744,
			"byteOffset":81880,
			"target":34962
		},
		{
			"buffer":0,
			"byteLength":5760,
			"byteOffset":113624,
			"target":34963
		},
		{
			"buffer":0,
			"byteLength":8,
			"byteOffset":119384
		},
		{
			"buffer":0,
			"byteLength":24,
			"byteOffset":119392
		},
		{
			"buffer":0,
			"byteLength":32,
			"byteOffset":119416
		},
		{
			"buffer":0,
			"byteLength":24,
			"byteOffset":119448
		},
		{
			"buffer":0,
			"byteLength":24,
			"byteOffset":119472
		},
		{
			"buffer":0,
			"byteLength":32,
			"byteOffset":119496
		},
		{
			"buffer":0,
			"byteLength":24,
			"byteOffset":119528
		},
		{
			"buffer":0,
			"byteLength":24,
			"byteOffset":119552
		},
		{
			"buffer":0,
			"byteLength":960,
			"byteOffset":119576
		},
		{
			"buffer":0,
			"byteLength":3840,
			"byteOffset":120536
		},
		{
			"buffer":0,
			"byteLength":24,
			"byteOffset":124376
		},
		{
			"buffer":0,
			"byteLength":24,
			"byteOffset":124400
		},
		{
			"buffer":0,
			"byteLength":32,
			"byteOffset":124424
		},
		{
			"buffer":0,
			"byteLength":2880,
			"byteOffset":124456
		},
		{
			"buffer":0,
			"byteLength":24,
			"byteOffset":127336
		},
		{
			"buffer":0,
			"byteLength":32,
			"byteOffset":127360
		},
		{
			"buffer":0,
			"byteLength":24,
			"byteOffset":127392
		}
	],
	"samplers":[
		{
			"magFilter":9729,
			"minFilter":9987
		}
	],
	"buffers":[
		{
			"byteLength":127416,
			"uri":"AnimatedTesting2.bin"
		}
	]
}
